<svg xmlns="http://www.w3.org/2000/svg" width="223" height="324" viewBox="0 0 167 243" version="1"><path d="M167 236c0 3-3 6-7 6H7c-4 0-7-3-7-6V7c0-4 3-7 7-7h153c4 0 7 3 7 7v229z" fill="#fff" stroke="#000"/><text style="line-height:125%" x="8" y="28" font-size="32" font-weight="400" letter-spacing="0" word-spacing="0" font-family="Bitstream Vera Sans"><tspan x="8" y="28" style="-inkscape-font-specification:Arial" font-family="Arial">2</tspan></text><path d="M21 44s3-3 3-7c0-2-2-6-7-6-4 0-6 4-6 6 0 4 3 7 3 7-4-3-11-1-11 5 0 3 3 6 7 6s7-5 7-5 0 6-3 9h7c-3-3-3-9-3-9s2 5 7 5c4 0 7-3 7-6 0-6-7-8-11-5z"/><text style="line-height:125%" x="-159" y="-214" transform="scale(-1)" font-size="32" font-weight="400" letter-spacing="0" word-spacing="0" font-family="Bitstream Vera Sans"><tspan x="-159" y="-214" style="-inkscape-font-specification:Arial" font-family="Arial">2</tspan></text><path d="M146 199s-3 3-3 6 2 7 7 7c4 0 6-4 6-7s-3-6-3-6c4 3 11 1 11-5 0-3-3-7-7-7s-6 5-6 5-1-6 3-9h-8c3 3 3 9 3 9s-2-5-7-5c-4 0-6 4-6 7 0 6 7 8 10 5zM90 55s6-4 6-11c0-4-4-10-12-10s-11 6-11 10c0 7 6 11 6 11-7-5-19-1-19 9 0 5 4 11 11 11 8 0 12-9 12-9s1 10-5 16h13c-6-6-5-16-5-16s3 9 11 9c7 0 11-6 11-11 0-10-12-14-18-9zM79 188s-6 5-6 12c0 4 3 10 11 10s12-6 12-10c0-7-6-12-6-12 6 5 18 2 18-8 0-6-4-11-11-11-8 0-11 8-11 8s-1-9 5-15H78c6 5 5 15 5 15s-4-8-12-8c-6 0-11 5-11 11 0 10 12 13 19 8z"/></svg>