<svg xmlns="http://www.w3.org/2000/svg" width="222.78" height="323.56" viewBox="0 0 167.09 242.67"><path d="M166.84 235.55a6.89 6.89 0 0 1-6.87 6.87H7.1a6.88 6.88 0 0 1-6.86-6.87V7.12A6.89 6.89 0 0 1 7.11.25h152.86c3.78 0 6.87 3.1 6.87 6.87v228.43z" fill="#fff" stroke-width=".5" stroke="#000"/><text style="line-height:125%" x="7.85" y="26.41" font-size="32" font-weight="400" letter-spacing="0" word-spacing="0" fill="#df0000" font-family="Bitstream Vera Sans"><tspan x="7.85" y="26.41" style="-inkscape-font-specification:Arial" font-family="Arial">3</tspan></text><text style="line-height:125%" x="-159.49" y="-216.72" transform="scale(-1)" font-size="32" font-weight="400" letter-spacing="0" word-spacing="0" fill="#df0000" font-family="Bitstream Vera Sans"><tspan x="-159.49" y="-216.72" style="-inkscape-font-specification:Arial" font-family="Arial">3</tspan></text><path d="M21.76 37.26c-3.13-4.23-4.8-8.53-4.8-8.53s-1.66 4.3-4.78 8.53c-3.13 4.23-7.03 6.98-7.03 6.98s3.9 2.75 7.03 6.98c3.12 4.22 4.79 8.52 4.79 8.52s1.66-4.3 4.79-8.52c3.13-4.23 7.02-6.98 7.02-6.98s-3.9-2.75-7.02-6.98zm133.65 154.26c-3.13-4.23-4.79-8.52-4.79-8.52s-1.66 4.3-4.79 8.52c-3.13 4.23-7.02 6.98-7.02 6.98s3.9 2.75 7.02 6.98c3.13 4.23 4.8 8.53 4.8 8.53s1.65-4.3 4.78-8.53c3.13-4.23 7.03-6.98 7.03-6.98s-3.9-2.75-7.03-6.98zM91.32 179.8c-5.48-7.42-8.4-14.96-8.4-14.96s-2.9 7.54-8.39 14.95c-5.48 7.41-12.3 12.23-12.3 12.23s6.82 4.82 12.3 12.24a71.95 71.95 0 0 1 8.4 14.94s2.91-7.53 8.4-14.94c5.48-7.42 12.3-12.24 12.3-12.24s-6.82-4.82-12.3-12.23zm0-141.21c-5.48-7.41-8.4-14.95-8.4-14.95s-2.9 7.54-8.39 14.95c-5.48 7.4-12.3 12.23-12.3 12.23s6.82 4.82 12.3 12.23A71.95 71.95 0 0 1 82.93 78s2.91-7.54 8.4-14.95c5.48-7.41 12.3-12.23 12.3-12.23S96.82 46 91.34 38.59zm0 69.7c-5.48-7.41-8.4-14.95-8.4-14.95s-2.9 7.54-8.39 14.95c-5.48 7.41-12.3 12.23-12.3 12.23s6.82 4.82 12.3 12.23a71.95 71.95 0 0 1 8.4 14.95s2.91-7.54 8.4-14.95c5.48-7.41 12.3-12.23 12.3-12.23s-6.82-4.82-12.3-12.23z" fill="#df0000"/></svg>