<svg xmlns="http://www.w3.org/2000/svg" width="222.8" height="323.6" viewBox="0 0 167.1 242.7"><path d="M166.8 235.5c0 3.8-3 7-6.8 7H7c-3.8 0-6.8-3.2-6.8-7V7.1C.3 3.3 3.3.3 7 .3h153c3.8 0 6.8 3 6.8 6.8v228.4z" fill="#fff" stroke-width=".5" stroke="#000"/><text style="line-height:125%" x="8.3" y="27.5" font-size="32" font-weight="400" letter-spacing="0" word-spacing="0" font-family="Bitstream Vera Sans"><tspan x="8.3" y="27.5" style="-inkscape-font-specification:Arial" font-family="Arial">3</tspan></text><path d="M20.7 43.7s3.5-2.8 3.5-6.7c0-2.3-2-6-6.7-6a6.5 6.5 0 0 0-6.8 6c0 4 3.6 6.7 3.6 6.7-4-3-11-1-11 5.2 0 3 2.6 6.4 6.5 6.4 4.7 0 6.7-5.1 6.7-5.1s.6 5.8-2.9 9h7.7c-3.5-3.2-2.9-9-2.9-9s2 5 6.8 5c3.9 0 6.4-3.3 6.4-6.3 0-6.1-7-8.2-11-5.2z"/><text style="line-height:125%" x="-158.9" y="-214.5" transform="scale(-1)" font-size="32" font-weight="400" letter-spacing="0" word-spacing="0" font-family="Bitstream Vera Sans"><tspan x="-158.9" y="-214.5" style="-inkscape-font-specification:Arial" font-family="Arial">3</tspan></text><path d="M146.5 198.7s-3.5 2.9-3.5 6.8c0 2.3 2 6 6.7 6s6.7-3.7 6.7-6c0-4-3.5-6.8-3.5-6.8 4 3 10.9 1 10.9-5 0-3.1-2.5-6.5-6.4-6.5-4.7 0-6.7 5.1-6.7 5.1s-.6-5.8 2.8-9h-7.7c3.5 3.2 3 9 3 9s-2.1-5.1-6.8-5.1c-4 0-6.4 3.4-6.4 6.4 0 6.1 7 8.2 10.9 5.1zM89.6 47.5s6-4.8 6-11.4A11 11 0 0 0 84 25.8a11 11 0 0 0-11.3 10.3c0 6.6 6 11.4 6 11.4-6.7-5.2-18.5-1.6-18.5 8.7A11 11 0 0 0 71 67c8 0 11.4-8.7 11.4-8.7s1 10-4.9 15.2h13c-5.8-5.3-4.8-15.2-4.8-15.2S89.2 67 97.2 67A11 11 0 0 0 108 56.2c0-10.3-11.8-13.9-18.4-8.7zM78.8 196.2s-6 4.8-6 11.4A11 11 0 0 0 84.2 218a11 11 0 0 0 11.4-10.3c0-6.6-6-11.4-6-11.4 6.6 5.2 18.5 1.7 18.5-8.6a11 11 0 0 0-10.9-10.9c-8 0-11.4 8.7-11.4 8.7s-1-9.9 4.9-15.2h-13c5.9 5.3 4.9 15.2 4.9 15.2s-3.5-8.7-11.4-8.7a11 11 0 0 0-10.9 10.9c0 10.3 11.8 13.8 18.5 8.6zm10.8-79s6-4.8 6-11.4A11 11 0 0 0 84 95.5a11 11 0 0 0-11.3 10.3c0 6.6 6 11.4 6 11.4-6.7-5.2-18.5-1.6-18.5 8.7A11 11 0 0 0 71 136.7c8 0 11.4-8.6 11.4-8.6s1 9.8-4.9 15.1h13c-5.8-5.3-4.8-15.1-4.8-15.1s3.4 8.6 11.4 8.6A11 11 0 0 0 108 126c0-10.3-11.8-13.9-18.4-8.7z"/></svg>