<svg xmlns="http://www.w3.org/2000/svg" xmlns:xlink="http://www.w3.org/1999/xlink" width="222.783" height="323.556" viewBox="0 0 167.087 242.667"><defs><radialGradient xlink:href="#a" id="e" cx="-.158" cy="-8.835" fx="-.158" fy="-8.835" r="8" gradientTransform="matrix(-1.58427 -.0235 .03072 -2.47757 -.249 -26.714)" gradientUnits="userSpaceOnUse"/><linearGradient id="a"><stop offset="0"/><stop offset="1" stop-opacity=".649"/></linearGradient><linearGradient id="b"><stop offset="0" stop-color="#fff" stop-opacity=".435"/><stop offset="1" stop-opacity="0"/></linearGradient><filter color-interpolation-filters="sRGB" id="h" x="-.331" width="1.661" y="-.164" height="1.329"><feGaussianBlur stdDeviation="14.131"/></filter><linearGradient id="c"><stop offset="0" stop-color="#fff" stop-opacity=".489"/><stop offset="1" stop-opacity="0"/></linearGradient><filter color-interpolation-filters="sRGB" id="j" x="-.331" width="1.661" y="-.164" height="1.329"><feGaussianBlur stdDeviation="14.131"/></filter><linearGradient id="d"><stop offset="0" stop-color="#fff" stop-opacity=".237"/><stop offset="1" stop-opacity="0"/></linearGradient><filter color-interpolation-filters="sRGB" id="l" x="-.331" width="1.661" y="-.164" height="1.329"><feGaussianBlur stdDeviation="14.131"/></filter><radialGradient r="8" fy="-8.835" fx="-.158" cy="-8.835" cx="-.158" gradientTransform="matrix(-1.58427 -.0235 .03072 -2.47757 -.249 -26.714)" gradientUnits="userSpaceOnUse" id="f" xlink:href="#a"/><radialGradient xlink:href="#b" id="g" gradientUnits="userSpaceOnUse" gradientTransform="matrix(1.25656 -.7774 .33664 .53613 -221.202 359.243)" cx="168.025" cy="509.476" fx="168.025" fy="509.476" r="81.903"/><radialGradient xlink:href="#c" id="i" gradientUnits="userSpaceOnUse" gradientTransform="matrix(1.25656 -.7774 .33664 .53613 -221.202 359.243)" cx="168.025" cy="509.476" fx="168.025" fy="509.476" r="81.903"/><radialGradient xlink:href="#d" id="k" gradientUnits="userSpaceOnUse" gradientTransform="matrix(1.25656 -.7774 .33664 .53613 -221.202 359.243)" cx="168.025" cy="509.476" fx="168.025" fy="509.476" r="81.903"/></defs><g stroke="#000"><path d="M166.837 235.548c0 3.777-3.087 6.869-6.871 6.869H7.11c-3.775 0-6.861-3.092-6.861-6.87V7.12C.25 3.343 3.336.25 7.11.25h152.856c3.784 0 6.87 3.093 6.87 6.87v228.428z" fill="#fff" stroke-width=".5"/></g><path d="M7.989 3.103C7.747-.954.242-8.59 0-10.5-.242-8.591-7.747-.955-7.989 3.103c-.169 2.868 1.695 4.057 3.39 4.057 1.835-.022 3.35-2.8 3.873-3.341.242.716-1.603 6.682-2.179 6.682h5.811c-.576 0-2.421-5.966-2.179-6.682.457.496 1.797 3.258 3.874 3.341 1.694-.001 3.557-1.189 3.388-4.057z" fill="url(#f)" transform="matrix(6.30671 0 0 5.7663 83.915 120.04)"/><path transform="matrix(.32621 -.21497 .26709 .31372 -145.53 12.499)" d="M122.357 574.383s-13.123-65.067 17.801-92.974c34.761-31.369 150.112-71.195 150.112-71.195s-81.652 84.604-110.112 108.338c-27.21 22.692-57.801 55.83-57.801 55.83z" fill="url(#g)" filter="url(#h)"/><path transform="matrix(.49445 -.02458 .22412 .57443 -137.309 -172.304)" d="M122.357 574.383s-13.123-65.067 17.801-92.974c34.761-31.369 150.112-71.195 150.112-71.195s-81.652 84.604-110.112 108.338c-27.21 22.692-57.801 55.83-57.801 55.83z" fill="url(#i)" filter="url(#j)"/><path transform="matrix(.38584 -.06125 .11388 .39596 -47.589 -97.45)" d="M122.357 574.383s-13.123-65.067 17.801-92.974c34.761-31.369 150.112-71.195 150.112-71.195s-81.652 84.604-110.112 108.338c-27.21 22.692-57.801 55.83-57.801 55.83z" fill="url(#k)" filter="url(#l)"/><path d="M14.054 36.61v169.67h134.491V36.61H14.055zm69.862 22.885c1.526 11.013 48.853 55.045 50.379 78.438 1.066 16.538-10.68 23.387-21.363 23.393-13.099-.48-21.553-16.403-24.436-19.265-1.526 4.129 10.109 38.53 13.742 38.53H65.594c3.633 0 15.268-34.401 13.741-38.53-3.293 3.115-12.855 19.14-24.429 19.265-10.69 0-22.441-6.855-21.375-23.393 1.526-23.4 48.859-67.43 50.385-78.438z" fill="#fffeff"/><text style="line-height:125%" x="-160.908" y="-215.097" transform="scale(-1)" font-size="32" font-weight="400" letter-spacing="0" word-spacing="0" font-family="Bitstream Vera Sans"><tspan x="-160.908" y="-215.097" style="-inkscape-font-specification:Arial" font-family="Arial">K</tspan></text><g><path d="M138.173 193.764c.365 5.596 11.687 16.128 12.052 18.763.365-2.633 11.687-13.166 12.052-18.763.255-3.956-2.557-5.596-5.114-5.596-2.769.03-5.055 3.863-5.843 4.608-.365-.987 2.418-9.216 3.287-9.216h-8.766c.869 0 3.652 8.229 3.287 9.216-.69-.684-2.711-4.493-5.844-4.608-2.556.001-5.366 1.64-5.111 5.596z"/></g><text style="line-height:125%" x="6.246" y="28.013" font-size="32" font-weight="400" letter-spacing="0" word-spacing="0" font-family="Bitstream Vera Sans"><tspan x="6.246" y="28.013" style="-inkscape-font-specification:Arial" font-family="Arial">K</tspan></text><g><path d="M28.981 49.346c-.365-5.596-11.687-16.128-12.052-18.763-.365 2.633-11.687 13.166-12.052 18.763-.255 3.956 2.557 5.596 5.114 5.596 2.769-.03 5.055-3.863 5.843-4.608.365.987-2.418 9.216-3.287 9.216h8.766c-.869 0-3.652-8.229-3.287-9.216.69.684 2.71 4.493 5.844 4.608 2.556-.001 5.366-1.64 5.111-5.596z"/></g></svg>